# xmcd
#
# Track frame offsets: 
#        150
#        13045
#        28118
#        42058
#        57337
#        71894
#        86256
#        99919
#        111541
#        123582
#        134997
#        147484
#        160312
#        173520
#        186347
#        204148
#        223797
#        248693
#        270177
#        296588
#        315009
#        338033
#
# Disc length: 4723 seconds
#
# Revision: 1
# Processed by: cddbd v1.5.2PL0 Copyright (c) Steve Scherf et al.
# Submitted via: ExactAudioCopyFreeDBPlugin 1.0
#
DISCID=40127116
DTITLE=Ray Charles - Ray Charles:  Eighteen Classic Albums
DYEAR=2017
DGENRE=Rhythm and Blues
TTITLE0=Ain't That Love
TTITLE1=Drown in My Own Tears
TTITLE2=Come Back Baby
TTITLE3=Sinner's Prayer
TTITLE4=Funny (But I Still Love You)
TTITLE5=Losing Hand
TTITLE6=A Fool for You
TTITLE7=Hallelujah I Love Her So
TTITLE8=Mess Around
TTITLE9=This Little Girl of Mine
TTITLE10=Mary Ann
TTITLE11=Greenbacks
TTITLE12=Don't You Know
TTITLE13=I Got a Woman
TTITLE14=The Ray
TTITLE15=My Melancholy Baby
TTITLE16=Black Coffee
TTITLE17=There's No You
TTITLE18=Doodlin'
TTITLE19=Sweet Sixteen Bars
TTITLE20=I Surrender Dear
TTITLE21=Undecided
EXTD=YEAR: 2017
EXTT0=
EXTT1=
EXTT2=
EXTT3=
EXTT4=
EXTT5=
EXTT6=
EXTT7=
EXTT8=
EXTT9=
EXTT10=
EXTT11=
EXTT12=
EXTT13=
EXTT14=
EXTT15=
EXTT16=
EXTT17=
EXTT18=
EXTT19=
EXTT20=
EXTT21=
PLAYORDER=
